<?xml version="1.0" encoding="UTF-8" standalone="no"?>
<!-- Created with Inkscape (http://www.inkscape.org/) -->
<!-- Edited by hand to add color: -->
<!--    tomato        #FF6347  -->
<!--    darkslateblue #483D8B  -->
<!--    teal          #008080  -->

<svg
   xmlns:dc="http://purl.org/dc/elements/1.1/"
   xmlns:cc="http://creativecommons.org/ns#"
   xmlns:rdf="http://www.w3.org/1999/02/22-rdf-syntax-ns#"
   xmlns:svg="http://www.w3.org/2000/svg"
   xmlns="http://www.w3.org/2000/svg"
   xmlns:sodipodi="http://sodipodi.sourceforge.net/DTD/sodipodi-0.dtd"
   xmlns:inkscape="http://www.inkscape.org/namespaces/inkscape"
   width="54"
   height="65"
   id="svg3689"
   version="1.1"
   inkscape:version="0.47 r22583"
   sodipodi:docname="Nouveau document 5">
  <defs id="defs3691">
    <inkscape:perspective
       id="perspective3707"
       inkscape:persp3d-origin="0.5 : 0.33333333 : 1"
       inkscape:vp_z="1 : 0.5 : 1"
       inkscape:vp_y="0 : 1000 : 0"
       inkscape:vp_x="0 : 0.5 : 1"
       sodipodi:type="inkscape:persp3d" />
  </defs>
  <sodipodi:namedview
     id="base"
     pagecolor="#ffffff"
     bordercolor="#666666"
     borderopacity="1.0"
     inkscape:pageopacity="0.0"
     inkscape:pageshadow="2"
     inkscape:zoom="0.35"
     inkscape:cx="-72.396918"
     inkscape:cy="28.530817"
     inkscape:document-units="px"
     inkscape:current-layer="svg3689"
     showgrid="false"
     inkscape:window-width="550"
     inkscape:window-height="483"
     inkscape:window-x="75"
     inkscape:window-y="75"
     inkscape:window-maximized="0" />
  <metadata id="metadata3694">
    <rdf:RDF>
      <cc:Work rdf:about="">
        <dc:format>image/svg+xml</dc:format>
        <dc:type rdf:resource="http://purl.org/dc/dcmitype/StillImage" />
        <dc:title></dc:title>
      </cc:Work>
    </rdf:RDF>
  </metadata>
  <g id="g3735">
    <path
       id="path3639-outside"
       d="
       m 31.93532,3.40625
       c -1.0312,8.08753 0.18998,18.00828 5.125,22.78125 0.25043,-7.4128 2.21035,-13.41084 3.875,-18.0625 -2.31283,2.81369 -3.80941,4.90911 -4.53125,8.5625
       C 33.84081,13.74122 33.17276,9.97645 31.93532,3.40625 z
       m -15.90625,3.1875
       m 35.625,5.375
       m -50.03125,2.75
       C 2.44778,23.77855 6.83181,36.79581 16.71657,42.1875 15.55279,37.95668 13.84206,26.04796 14.62282,18.65625 13.45904,22.88416 12.02956,27.11546 12.81032,32.625 8.12574,28.79484 4.71641,22.70316 1.62282,14.71875 z"
       style="fill:tomato;fill-opacity:1;stroke:none" />
    <path
       id="path3639-inside"
       d="
       m 31.93532,3.40625
       m -15.90625,3.1875
       c 0.82496,9.0598 1.14649,19.85831 11.03125,25.25 -0.89862,-7.76635 -0.95846,-13.13418 -0.53125,-20.4375 -1.51733,4.22791 -2.32902,7.29223 -2.34375,12.625 -4.06586,-4.62566 -4.97427,-8.74598 -8.15625,-17.4375 z"
       style="fill:darkslateblue;fill-opacity:1;stroke:none" />
    <path
       id="path3639-leaf"
       d="
       m 31.93532,3.40625
       m -15.90625,3.1875
       m 35.625,5.375
       C 45.99721,32.23914 10.6409,28.12668 15.06032,61.125 23.36883,38.02618 54.30572,50.27037 51.65407,11.96875 z"
       style="fill:teal;fill-opacity:1;stroke:none" />
  </g>
</svg>
