<svg height="68.490196" width="53.777599" xmlns="http://www.w3.org/2000/svg"><path d="m34.62282 26.46875c-2.86023 1.29176-3.70217 1.97122-6.15625 3.07031-.78376-7.66525-1.39888-20.28576 1.44776-24.34682-.16253 10.40891.91684 15.70036 4.70849 21.27651m-11.6875-6.84375c-2.74365-5.44952-4.01126-13.54759-8.0625-18.3125-1.70752 8.47968-1.16577 17.58393-4.5625 25.8125-4.31904-5.2998-5.66654-12.4761-10.03125-17.8125-1.75384 11.96299 4.96386 26.45752 14.39277 34.16421-4.14081 7.22876-3.83385 17.2434.51164 25.01349 3.61756-31.08529 46.85355-11.08944 37.18934-62.58395-2.67262 6.90849-6.2088 14.44055-13.15625 17.6875.43302-7.24543 3.8327-13.69841 4.75-20.875-3.11441 2.63845-6.26862 5.41614-8.03125 9.15625-1.55568-4.68531-2.47507-7.05476-3.40625-11.875-6.40825 6.79981-8.62293 11.28612-9.59375 19.625zm-6.40625 2.4375c1.0311 4.47909 5.32796 8.36939 7.75 10.90625-2.30778 1.49718-4.65727 4.36169-6.28125 5.75-.99084-5.29262-1.74997-12.21056-1.46875-16.65625z" fill="#fff"/><path d="m31.93532 3.40625c-1.0312 8.08753.18998 18.00828 5.125 22.78125.25043-7.4128 2.21035-13.41084 3.875-18.0625-2.31283 2.81369-3.80941 4.90911-4.53125 8.5625-2.56326-2.94628-3.23131-6.71105-4.46875-13.28125zm-15.90625 3.1875c.82496 9.0598 1.14649 19.85831 11.03125 25.25-.89862-7.76635-.95846-13.13418-.53125-20.4375-1.51733 4.22791-2.32902 7.29223-2.34375 12.625-4.06586-4.62566-4.97427-8.74598-8.15625-17.4375zm35.625 5.375c-5.65686 20.27039-41.01317 16.15793-36.59375 49.15625 8.30851-23.09882 39.2454-10.85463 36.59375-49.15625zm-50.03125 2.75c.82496 9.0598 5.20899 22.07706 15.09375 27.46875-1.16378-4.23082-2.87451-16.13954-2.09375-23.53125-1.16378 4.22791-2.59326 8.45921-1.8125 13.96875-4.68458-3.83016-8.09391-9.92184-11.1875-17.90625z"/></svg>