<svg height="65" width="54" xmlns="http://www.w3.org/2000/svg"><path d="m31.93532 3.40625c-1.0312 8.08753.18998 18.00828 5.125 22.78125.25043-7.4128 2.21035-13.41084 3.875-18.0625-2.31283 2.81369-3.80941 4.90911-4.53125 8.5625-2.56326-2.94628-3.23131-6.71105-4.46875-13.28125zm-30.3125 11.3125c.82496 9.0598 5.20899 22.07706 15.09375 27.46875-1.16378-4.23082-2.87451-16.13954-2.09375-23.53125-1.16378 4.22791-2.59326 8.45921-1.8125 13.96875-4.68458-3.83016-8.09391-9.92184-11.1875-17.90625z" fill="#ff6347"/><path d="m16.02907 6.59375c.82496 9.0598 1.14649 19.85831 11.03125 25.25-.89862-7.76635-.95846-13.13418-.53125-20.4375-1.51733 4.22791-2.32902 7.29223-2.34375 12.625-4.06586-4.62566-4.97427-8.74598-8.15625-17.4375z" fill="#483d8b"/><path d="m51.65407 11.96875c-5.65686 20.27039-41.01317 16.15793-36.59375 49.15625 8.30851-23.09882 39.2454-10.85463 36.59375-49.15625z" fill="#008080"/></svg>